<svg xmlns="http://www.w3.org/2000/svg" xmlns:xlink="http://www.w3.org/1999/xlink" viewBox="0,0,256,256" width="240px" height="240px" fill-rule="nonzero"><g fill="none" fill-rule="nonzero" stroke="none" stroke-width="1" stroke-linecap="butt" stroke-linejoin="miter" stroke-miterlimit="10" stroke-dasharray="" stroke-dashoffset="0" font-family="none" font-weight="none" font-size="none" text-anchor="none" style="mix-blend-mode: normal"><g transform="scale(5.33333,5.33333)"><path d="M16,42h16c5.523,0 10,-4.477 10,-10v-16c0,-5.523 -4.477,-10 -10,-10h-16c-5.523,0 -10,4.477 -10,10v16c0,5.523 4.477,10 10,10z" fill="#0c2045"></path><path d="M12.783,17.974c-0.42084,0 -0.762,0.34116 -0.762,0.762c0,0.42084 0.34116,0.762 0.762,0.762c0.42084,0 0.762,-0.34116 0.762,-0.762c0,-0.42084 -0.34116,-0.762 -0.762,-0.762z" fill="#ffc107"></path><path d="M15.982,21.81l1.444,-0.61c0.68,-1.22 1.835,-1.927 3.332,-1.927c0.34,0 0.659,0.043 0.962,0.113l1.372,-0.579c-0.676,-0.333 -1.451,-0.526 -2.334,-0.526c-2.39,0 -4.095,1.313 -4.776,3.529zM13.297,22.944v-1.569h-1.024v2.002z" fill="#ff5722"></path><path d="M13.297,25.733v-2.789l-1.024,0.433v2.788zM16.742,24.148c0,-1.169 0.246,-2.163 0.684,-2.948l-1.444,0.61c-0.214,0.696 -0.333,1.476 -0.333,2.338c0,0.201 0.028,0.382 0.04,0.574l1.062,-0.449c-0.001,-0.043 -0.009,-0.081 -0.009,-0.125zM30.421,18.5c-0.279,0.086 -0.537,0.195 -0.774,0.327zM23.092,18.807l-1.372,0.579c1.027,0.237 1.828,0.863 2.35,1.796l1.022,-0.432c-0.468,-0.872 -1.151,-1.524 -2,-1.943z" fill="#f44336"></path><path d="M13.297,28.521v-2.788l-1.024,0.432v2.788zM30.421,18.5l-0.774,0.327c-0.983,0.547 -1.577,1.464 -1.577,2.58c0,0.302 0.046,0.571 0.117,0.825l1.032,-0.436c-0.034,-0.132 -0.056,-0.27 -0.056,-0.42c0,-1.227 1.117,-2.117 2.734,-2.117c0.796,0 1.467,0.213 1.958,0.579l1.048,-0.443c-0.694,-0.684 -1.735,-1.113 -2.974,-1.113c-0.548,-0.001 -1.053,0.078 -1.508,0.218zM16.75,24.274l-1.062,0.449c0.059,0.959 0.26,1.811 0.597,2.536l1.004,-0.424c-0.335,-0.714 -0.523,-1.575 -0.539,-2.561zM25.092,20.751l-1.022,0.432c0.381,0.682 0.603,1.532 0.658,2.51l1.061,-0.448c-0.094,-0.948 -0.322,-1.793 -0.697,-2.494z" fill="#e91e63"></path><g fill="#9c27b0"><path d="M25.609,26.108c0.146,-0.602 0.242,-1.247 0.242,-1.96c0,-0.316 -0.033,-0.609 -0.063,-0.904l-1.061,0.448c0.009,0.153 0.03,0.296 0.03,0.456c0,0.968 -0.177,1.809 -0.481,2.523zM17.29,26.834l-1.004,0.424c0.408,0.879 1.008,1.568 1.777,2.038l1.258,-0.531c-0.901,-0.338 -1.594,-1.001 -2.031,-1.931zM13.297,28.521l-1.024,0.432v0.836h1.024zM29.22,21.795l-1.032,0.436c0.245,0.866 0.915,1.471 2.129,1.889l1.6,-0.676l-0.338,-0.085c-1.457,-0.364 -2.173,-0.832 -2.359,-1.564zM34.719,21.273h1.078c-0.05,-0.731 -0.379,-1.373 -0.893,-1.879l-1.048,0.443c0.472,0.352 0.779,0.847 0.863,1.436z"></path></g><g fill="#3f51b5"><path d="M25.609,26.108l-1.333,0.563c-0.629,1.476 -1.85,2.36 -3.519,2.36c-0.528,0 -1.001,-0.103 -1.437,-0.267l-1.258,0.531c0.752,0.459 1.648,0.728 2.695,0.728c2.543,0 4.262,-1.482 4.852,-3.915zM28.828,26.859h-1.078c0.026,0.368 0.127,0.705 0.264,1.021l0.989,-0.418c-0.084,-0.189 -0.15,-0.388 -0.175,-0.603zM32.695,23.641l-0.779,-0.196l-1.6,0.676c0.234,0.081 0.487,0.156 0.762,0.224l1.289,0.328c0.714,0.176 1.257,0.399 1.659,0.669l1.205,-0.509c-0.528,-0.515 -1.353,-0.899 -2.536,-1.192z"></path></g><g fill="#03a9f4"><path d="M29.003,27.463l-0.989,0.418c0.377,0.87 1.139,1.531 2.166,1.873l1.692,-0.714c-1.379,-0.033 -2.457,-0.644 -2.869,-1.577zM35.914,27.333c0.035,-0.193 0.063,-0.39 0.063,-0.598c0,-0.784 -0.234,-1.404 -0.745,-1.902l-1.205,0.509c0.579,0.39 0.856,0.883 0.856,1.51c0,0.393 -0.131,0.75 -0.348,1.063z"></path></g><path d="M35.914,27.333l-1.379,0.583c-0.472,0.682 -1.394,1.132 -2.55,1.132c-0.039,0 -0.074,-0.006 -0.112,-0.007l-1.692,0.714c0.514,0.171 1.086,0.269 1.71,0.269c2.207,-0.001 3.724,-1.06 4.023,-2.691z" fill="#009688"></path></g></g></svg>