<svg width="220" height="70" viewBox="0 0 470 133" fill="none" xmlns="http://www.w3.org/2000/svg">
<ellipse cx="68" cy="66.5" rx="68" ry="66.5" fill="#0C2045"/>
<path d="M85.3966 114.546C86.0939 116.521 88.2434 117.591 90.1923 116.819C101.593 112.303 111.217 104.397 117.595 94.2343C124.624 83.0348 127.252 69.8267 125.008 56.9774C122.764 44.128 115.794 32.4777 105.348 24.1146C94.902 15.7515 81.6628 11.2224 68.0034 11.3392C54.3441 11.456 41.1577 16.2111 30.8079 24.7521C20.4581 33.293 13.6215 45.0615 11.5237 57.9479C9.42585 70.8344 12.2039 83.9963 19.3598 95.0745C25.8537 105.128 35.5674 112.868 47.0188 117.189C48.9765 117.927 51.1103 116.824 51.7841 114.841V114.841C52.4861 112.775 51.3365 110.553 49.3087 109.753C39.7706 105.992 31.6847 99.4509 26.2361 91.0158C20.0853 81.4937 17.6974 70.1805 19.5006 59.1041C21.3038 48.0276 27.1801 37.9122 36.0761 30.5709C44.9722 23.2295 56.3065 19.1424 68.0473 19.042C79.788 18.9416 91.1677 22.8345 100.146 30.0229C109.125 37.2113 115.116 47.2253 117.045 58.2698C118.974 69.3143 116.715 80.6673 110.673 90.2937C105.319 98.8248 97.3038 105.506 87.8041 109.429C85.7911 110.26 84.6721 112.495 85.3966 114.546V114.546Z" fill="#4285F4"/>
<path d="M73.6763 89.1032C74.1294 91.1712 76.1834 92.5057 78.1734 91.7785C83.3245 89.8961 87.8276 86.5308 91.0762 82.0765C95.0775 76.5901 96.8935 69.8382 96.1753 63.1172C95.4572 56.3962 92.2556 50.1798 87.1853 45.6615C82.115 41.1433 75.5333 38.6416 68.7039 38.6368C61.8745 38.632 55.2787 41.1245 50.183 45.6357C45.0872 50.1468 41.8506 56.3587 41.0946 63.0787C40.3385 69.7987 42.1164 76.5531 46.0867 82.0451C49.3105 86.5043 53.7951 89.8761 58.9361 91.7656C60.9219 92.4954 62.9818 91.1652 63.4463 89.0991V89.0991C63.9139 87.0192 62.5785 84.9914 60.6233 84.1472C57.3549 82.7358 54.5079 80.4706 52.4058 77.5629C49.5485 73.6106 48.2691 68.7498 48.8132 63.9138C49.3572 59.0777 51.6865 54.6073 55.3536 51.3609C59.0208 48.1144 63.7675 46.3207 68.6822 46.3242C73.597 46.3276 78.3335 48.1279 81.9824 51.3795C85.6312 54.6311 87.9352 59.1047 88.452 63.9415C88.9688 68.7782 87.662 73.6372 84.7825 77.5856C82.663 80.4916 79.8016 82.7535 76.5234 84.1602C74.5654 85.0003 73.2207 87.0239 73.6763 89.1032V89.1032Z" fill="#F4B911"/>
<path d="M55.5904 99.8752C54.761 101.994 52.4023 103.109 50.324 102.189C42.4047 98.6852 35.7924 92.9927 31.4104 85.8371C26.3472 77.5691 24.5885 67.8814 26.4456 58.49C28.3027 49.0986 33.6559 40.6097 41.5569 34.527C49.4578 28.4443 59.3966 25.1604 69.6125 25.2571C79.8285 25.3538 89.6623 28.8249 97.3719 35.0553C105.081 41.2858 110.169 49.8736 111.734 59.2974C113.299 68.7212 111.239 78.3728 105.921 86.5424C101.319 93.6115 94.5334 99.1762 86.5098 102.53C84.4055 103.409 82.0693 102.236 81.3019 100.091V100.091C80.4909 97.8241 81.743 95.356 83.9349 94.3528C89.8087 91.6646 94.7741 87.4511 98.2054 82.1804C102.413 75.7173 104.042 68.0818 102.804 60.6265C101.566 53.1712 97.5413 46.3773 91.4421 41.4483C85.343 36.5193 77.5634 33.7734 69.4814 33.6969C61.3994 33.6203 53.5367 36.2182 47.2862 41.0303C41.0356 45.8424 36.8007 52.5581 35.3315 59.9878C33.8623 67.4175 35.2536 75.0816 39.2592 81.6224C42.5163 86.9412 47.3311 91.2381 53.0976 94.0373C55.2793 95.0964 56.4757 97.614 55.5904 99.8752V99.8752Z" fill="#E1685D"/>
<path d="M68.5 86L83.6554 111.5H53.3446L68.5 86Z" fill="#D9DADA"/>
<circle cx="69" cy="66" r="13" fill="#0F9D58"/>
<path d="M189.791 52.9844C189.791 57.2292 189.257 60.9792 188.189 64.2344C187.122 67.4635 185.546 70.1719 183.463 72.3594C181.379 74.5469 178.801 76.2005 175.728 77.3203C172.681 78.4401 169.036 79 164.791 79H154.83C154.361 79 153.879 78.8307 153.385 78.4922C152.89 78.1276 152.642 77.4766 152.642 76.5391V30.9141C152.642 29.9766 152.89 29.3385 153.385 29C153.879 28.6354 154.361 28.4531 154.83 28.4531H165.455C169.752 28.4531 173.372 29.0391 176.314 30.2109C179.283 31.3828 181.757 33.0495 183.736 35.2109C185.741 37.3464 187.252 39.9245 188.267 42.9453C189.283 45.9401 189.791 49.2865 189.791 52.9844ZM184.674 53.2188C184.674 50.276 184.296 47.5547 183.541 45.0547C182.812 42.5286 181.666 40.3542 180.103 38.5312C178.567 36.7083 176.614 35.2891 174.244 34.2734C171.874 33.2318 168.853 32.7109 165.181 32.7109H157.408V74.7422H165.221C168.658 74.7422 171.562 74.3255 173.931 73.4922C176.327 72.6328 178.319 71.3177 179.908 69.5469C181.497 67.776 182.681 65.5495 183.463 62.8672C184.27 60.1589 184.674 56.9427 184.674 53.2188ZM219.986 44.6641C219.986 45.0547 219.973 45.3932 219.947 45.6797C219.921 45.9401 219.869 46.1615 219.791 46.3438C219.739 46.5 219.661 46.6302 219.556 46.7344C219.478 46.8125 219.361 46.8516 219.205 46.8516C218.971 46.8516 218.697 46.7995 218.385 46.6953C218.072 46.5651 217.707 46.4349 217.291 46.3047C216.874 46.1745 216.418 46.0573 215.924 45.9531C215.429 45.8229 214.882 45.7578 214.283 45.7578C213.58 45.7578 212.89 45.9141 212.213 46.2266C211.536 46.513 210.819 46.9948 210.064 47.6719C209.335 48.3229 208.554 49.1953 207.721 50.2891C206.913 51.3828 206.015 52.724 205.025 54.3125V78.2188C205.025 78.375 204.986 78.5182 204.908 78.6484C204.83 78.7786 204.7 78.8828 204.517 78.9609C204.361 79.0391 204.127 79.1042 203.814 79.1562C203.528 79.2083 203.15 79.2344 202.681 79.2344C202.239 79.2344 201.861 79.2083 201.549 79.1562C201.262 79.1042 201.028 79.0391 200.846 78.9609C200.663 78.8828 200.533 78.7786 200.455 78.6484C200.403 78.5182 200.377 78.375 200.377 78.2188V42.8672C200.377 42.7109 200.403 42.5677 200.455 42.4375C200.533 42.3073 200.663 42.2031 200.846 42.125C201.028 42.0208 201.249 41.9557 201.51 41.9297C201.796 41.8776 202.161 41.8516 202.603 41.8516C203.046 41.8516 203.411 41.8776 203.697 41.9297C203.984 41.9557 204.205 42.0208 204.361 42.125C204.517 42.2031 204.622 42.3073 204.674 42.4375C204.752 42.5677 204.791 42.7109 204.791 42.8672V48.4531C205.806 46.9688 206.744 45.7708 207.603 44.8594C208.463 43.9479 209.283 43.2448 210.064 42.75C210.846 42.2292 211.601 41.8776 212.33 41.6953C213.085 41.513 213.853 41.4219 214.635 41.4219C214.973 41.4219 215.364 41.4479 215.806 41.5C216.249 41.526 216.718 41.5911 217.213 41.6953C217.734 41.7995 218.189 41.9297 218.58 42.0859C218.997 42.2161 219.283 42.3464 219.439 42.4766C219.596 42.5807 219.7 42.6849 219.752 42.7891C219.804 42.8672 219.843 42.9844 219.869 43.1406C219.921 43.2708 219.947 43.4661 219.947 43.7266C219.973 43.9609 219.986 44.2734 219.986 44.6641ZM257.681 60.1719C257.681 62.9844 257.317 65.5755 256.588 67.9453C255.859 70.3151 254.765 72.3724 253.306 74.1172C251.874 75.862 250.077 77.2292 247.916 78.2188C245.754 79.1823 243.241 79.6641 240.377 79.6641C237.616 79.6641 235.194 79.2344 233.111 78.375C231.054 77.4896 229.322 76.2396 227.916 74.625C226.536 72.9844 225.494 71.0052 224.791 68.6875C224.114 66.3698 223.775 63.7526 223.775 60.8359C223.775 58.0234 224.127 55.4323 224.83 53.0625C225.559 50.6927 226.64 48.6484 228.072 46.9297C229.53 45.1849 231.34 43.8307 233.502 42.8672C235.663 41.9036 238.189 41.4219 241.08 41.4219C243.84 41.4219 246.249 41.8516 248.306 42.7109C250.39 43.5703 252.122 44.8203 253.502 46.4609C254.882 48.0755 255.924 50.0417 256.627 52.3594C257.33 54.6771 257.681 57.2812 257.681 60.1719ZM252.76 60.6016C252.76 58.5964 252.564 56.6823 252.174 54.8594C251.783 53.0365 251.132 51.4349 250.221 50.0547C249.309 48.6484 248.085 47.5417 246.549 46.7344C245.012 45.901 243.098 45.4844 240.806 45.4844C238.697 45.4844 236.874 45.862 235.338 46.6172C233.801 47.3724 232.538 48.4271 231.549 49.7812C230.585 51.1094 229.869 52.6849 229.4 54.5078C228.931 56.3307 228.697 58.2969 228.697 60.4062C228.697 62.4375 228.892 64.3776 229.283 66.2266C229.674 68.0495 230.325 69.651 231.236 71.0312C232.148 72.4115 233.372 73.5052 234.908 74.3125C236.444 75.1198 238.359 75.5234 240.65 75.5234C242.76 75.5234 244.582 75.1458 246.119 74.3906C247.655 73.6354 248.905 72.5938 249.869 71.2656C250.859 69.9375 251.588 68.362 252.056 66.5391C252.525 64.7161 252.76 62.737 252.76 60.6016ZM298.971 60.0156C298.971 63.0365 298.632 65.7578 297.955 68.1797C297.304 70.6016 296.327 72.6589 295.025 74.3516C293.749 76.0443 292.161 77.3594 290.26 78.2969C288.359 79.2083 286.184 79.6641 283.736 79.6641C282.694 79.6641 281.718 79.5469 280.806 79.3125C279.895 79.1042 278.997 78.7656 278.111 78.2969C277.252 77.8281 276.379 77.2422 275.494 76.5391C274.635 75.8359 273.723 74.9896 272.76 74V92.2422C272.76 92.3984 272.721 92.5417 272.642 92.6719C272.564 92.8021 272.434 92.9062 272.252 92.9844C272.096 93.0885 271.861 93.1536 271.549 93.1797C271.262 93.2318 270.885 93.2578 270.416 93.2578C269.973 93.2578 269.596 93.2318 269.283 93.1797C268.997 93.1536 268.762 93.0885 268.58 92.9844C268.398 92.9062 268.267 92.8021 268.189 92.6719C268.137 92.5417 268.111 92.3984 268.111 92.2422V42.8672C268.111 42.6849 268.137 42.5286 268.189 42.3984C268.267 42.2682 268.385 42.1641 268.541 42.0859C268.723 42.0078 268.944 41.9557 269.205 41.9297C269.491 41.8776 269.83 41.8516 270.221 41.8516C270.611 41.8516 270.937 41.8776 271.197 41.9297C271.457 41.9557 271.679 42.0078 271.861 42.0859C272.043 42.1641 272.174 42.2682 272.252 42.3984C272.33 42.5286 272.369 42.6849 272.369 42.8672V47.9844C273.463 46.8646 274.504 45.901 275.494 45.0938C276.484 44.2604 277.473 43.5703 278.463 43.0234C279.452 42.4766 280.468 42.0729 281.51 41.8125C282.551 41.5521 283.658 41.4219 284.83 41.4219C287.382 41.4219 289.556 41.9167 291.353 42.9062C293.15 43.8698 294.609 45.1979 295.728 46.8906C296.874 48.5833 297.694 50.5625 298.189 52.8281C298.71 55.0677 298.971 57.4635 298.971 60.0156ZM294.088 60.7578C294.088 58.7786 293.931 56.8776 293.619 55.0547C293.306 53.2057 292.773 51.5651 292.017 50.1328C291.288 48.7005 290.299 47.5547 289.049 46.6953C287.825 45.8359 286.275 45.4062 284.4 45.4062C283.463 45.4062 282.538 45.5365 281.627 45.7969C280.741 46.0573 279.83 46.487 278.892 47.0859C277.955 47.6849 276.978 48.4661 275.963 49.4297C274.947 50.3672 273.879 51.5391 272.76 52.9453V68.3359C274.713 70.7057 276.575 72.5286 278.346 73.8047C280.142 75.0547 282.017 75.6797 283.971 75.6797C285.767 75.6797 287.304 75.25 288.58 74.3906C289.882 73.5052 290.937 72.3594 291.744 70.9531C292.551 69.5208 293.137 67.9193 293.502 66.1484C293.892 64.3516 294.088 62.5547 294.088 60.7578ZM354.244 30.6406C354.244 30.9792 354.218 31.2786 354.166 31.5391C354.114 31.7995 354.023 32.0208 353.892 32.2031C353.788 32.3594 353.658 32.4896 353.502 32.5938C353.346 32.6719 353.176 32.7109 352.994 32.7109H333.424V51.8516H351.978C352.161 51.8516 352.33 51.8906 352.486 51.9688C352.642 52.0208 352.773 52.125 352.877 52.2812C353.007 52.4375 353.098 52.6458 353.15 52.9062C353.202 53.1667 353.228 53.4922 353.228 53.8828C353.228 54.2214 353.202 54.5208 353.15 54.7812C353.098 55.0417 353.007 55.263 352.877 55.4453C352.773 55.6016 352.642 55.7318 352.486 55.8359C352.33 55.9141 352.161 55.9531 351.978 55.9531H333.424V78.2188C333.424 78.375 333.385 78.5182 333.306 78.6484C333.228 78.7786 333.098 78.8828 332.916 78.9609C332.734 79.0391 332.486 79.1042 332.174 79.1562C331.887 79.2083 331.51 79.2344 331.041 79.2344C330.598 79.2344 330.221 79.2083 329.908 79.1562C329.596 79.1042 329.348 79.0391 329.166 78.9609C328.984 78.8828 328.853 78.7786 328.775 78.6484C328.697 78.5182 328.658 78.375 328.658 78.2188V30.9141C328.658 29.9766 328.905 29.3385 329.4 29C329.895 28.6354 330.377 28.4531 330.846 28.4531H352.994C353.176 28.4531 353.346 28.5052 353.502 28.6094C353.658 28.6875 353.788 28.8177 353.892 29C354.023 29.1823 354.114 29.4167 354.166 29.7031C354.218 29.9635 354.244 30.276 354.244 30.6406ZM369.244 78.2188C369.244 78.375 369.205 78.5182 369.127 78.6484C369.049 78.7786 368.918 78.8828 368.736 78.9609C368.58 79.0391 368.346 79.1042 368.033 79.1562C367.747 79.2083 367.369 79.2344 366.9 79.2344C366.457 79.2344 366.08 79.2083 365.767 79.1562C365.481 79.1042 365.247 79.0391 365.064 78.9609C364.882 78.8828 364.752 78.7786 364.674 78.6484C364.622 78.5182 364.596 78.375 364.596 78.2188V42.8672C364.596 42.7109 364.622 42.5677 364.674 42.4375C364.752 42.3073 364.882 42.2031 365.064 42.125C365.247 42.0208 365.481 41.9557 365.767 41.9297C366.08 41.8776 366.457 41.8516 366.9 41.8516C367.369 41.8516 367.747 41.8776 368.033 41.9297C368.346 41.9557 368.58 42.0208 368.736 42.125C368.918 42.2031 369.049 42.3073 369.127 42.4375C369.205 42.5677 369.244 42.7109 369.244 42.8672V78.2188ZM369.947 30.9531C369.947 32.2031 369.726 33.0495 369.283 33.4922C368.84 33.9349 368.033 34.1562 366.861 34.1562C365.715 34.1562 364.921 33.9479 364.478 33.5312C364.062 33.0885 363.853 32.2422 363.853 30.9922C363.853 29.7422 364.075 28.8958 364.517 28.4531C364.96 28.0104 365.767 27.7891 366.939 27.7891C368.085 27.7891 368.866 28.0104 369.283 28.4531C369.726 28.8698 369.947 29.7031 369.947 30.9531ZM386.9 78.2188C386.9 78.375 386.861 78.5182 386.783 78.6484C386.705 78.7786 386.575 78.8828 386.392 78.9609C386.236 79.0391 386.002 79.1042 385.689 79.1562C385.403 79.2083 385.025 79.2344 384.556 79.2344C384.114 79.2344 383.736 79.2083 383.424 79.1562C383.137 79.1042 382.903 79.0391 382.721 78.9609C382.538 78.8828 382.408 78.7786 382.33 78.6484C382.278 78.5182 382.252 78.375 382.252 78.2188V25.5625C382.252 25.4062 382.278 25.263 382.33 25.1328C382.408 25.0026 382.538 24.8984 382.721 24.8203C382.903 24.7161 383.137 24.651 383.424 24.625C383.736 24.5729 384.114 24.5469 384.556 24.5469C385.025 24.5469 385.403 24.5729 385.689 24.625C386.002 24.651 386.236 24.7161 386.392 24.8203C386.575 24.8984 386.705 25.0026 386.783 25.1328C386.861 25.263 386.9 25.4062 386.9 25.5625V78.2188ZM428.736 58.7266C428.736 59.6641 428.489 60.3151 427.994 60.6797C427.499 61.0182 427.017 61.1875 426.549 61.1875H402.447C402.447 63.375 402.655 65.3542 403.072 67.125C403.515 68.8958 404.231 70.4193 405.221 71.6953C406.21 72.9453 407.499 73.9089 409.088 74.5859C410.676 75.263 412.629 75.6016 414.947 75.6016C416.588 75.6016 418.059 75.4583 419.361 75.1719C420.663 74.8854 421.783 74.5729 422.721 74.2344C423.684 73.8698 424.465 73.5443 425.064 73.2578C425.689 72.9714 426.132 72.8281 426.392 72.8281C426.549 72.8281 426.692 72.8672 426.822 72.9453C426.952 73.0234 427.056 73.1536 427.135 73.3359C427.213 73.4922 427.265 73.7005 427.291 73.9609C427.343 74.2214 427.369 74.5469 427.369 74.9375C427.369 75.1198 427.356 75.3021 427.33 75.4844C427.304 75.6406 427.265 75.7969 427.213 75.9531C427.187 76.0833 427.135 76.2135 427.056 76.3438C426.978 76.474 426.874 76.6042 426.744 76.7344C426.614 76.8646 426.21 77.099 425.533 77.4375C424.856 77.75 423.971 78.0755 422.877 78.4141C421.783 78.7266 420.507 79.013 419.049 79.2734C417.616 79.5339 416.067 79.6641 414.4 79.6641C411.666 79.6641 409.244 79.2604 407.135 78.4531C405.025 77.6198 403.254 76.4089 401.822 74.8203C400.39 73.2057 399.296 71.2135 398.541 68.8438C397.812 66.474 397.447 63.7266 397.447 60.6016C397.447 57.6068 397.825 54.9245 398.58 52.5547C399.361 50.1849 400.468 48.1797 401.9 46.5391C403.332 44.8724 405.051 43.6094 407.056 42.75C409.088 41.8646 411.34 41.4219 413.814 41.4219C416.471 41.4219 418.736 41.8646 420.611 42.75C422.486 43.6354 424.023 44.8333 425.221 46.3438C426.444 47.8281 427.33 49.5599 427.877 51.5391C428.45 53.5182 428.736 55.6016 428.736 57.7891V58.7266ZM423.931 57.3594C424.01 53.6094 423.15 50.6797 421.353 48.5703C419.556 46.4609 416.939 45.4062 413.502 45.4062C411.731 45.4062 410.168 45.7448 408.814 46.4219C407.486 47.0729 406.353 47.9453 405.416 49.0391C404.504 50.1328 403.801 51.4089 403.306 52.8672C402.812 54.2995 402.525 55.7969 402.447 57.3594H423.931ZM460.221 68.8047C460.221 70.4974 459.908 72.0208 459.283 73.375C458.658 74.7031 457.76 75.8359 456.588 76.7734C455.442 77.7109 454.062 78.4271 452.447 78.9219C450.832 79.4167 449.049 79.6641 447.096 79.6641C445.872 79.6641 444.713 79.5599 443.619 79.3516C442.525 79.1693 441.536 78.9349 440.65 78.6484C439.765 78.3359 439.01 78.0104 438.385 77.6719C437.786 77.3333 437.343 77.0339 437.056 76.7734C436.77 76.513 436.562 76.1875 436.431 75.7969C436.301 75.4062 436.236 74.8854 436.236 74.2344C436.236 73.8958 436.262 73.5964 436.314 73.3359C436.366 73.0755 436.431 72.8542 436.51 72.6719C436.588 72.4896 436.692 72.3594 436.822 72.2812C436.952 72.1771 437.096 72.125 437.252 72.125C437.538 72.125 437.955 72.3073 438.502 72.6719C439.049 73.0365 439.726 73.4401 440.533 73.8828C441.366 74.2995 442.343 74.6901 443.463 75.0547C444.609 75.4193 445.924 75.6016 447.408 75.6016C448.606 75.6016 449.7 75.4714 450.689 75.2109C451.679 74.9505 452.538 74.5599 453.267 74.0391C453.997 73.5182 454.556 72.8542 454.947 72.0469C455.364 71.2135 455.572 70.25 455.572 69.1562C455.572 68.0625 455.312 67.138 454.791 66.3828C454.27 65.6276 453.58 64.9766 452.721 64.4297C451.887 63.8568 450.924 63.362 449.83 62.9453C448.762 62.5026 447.655 62.0599 446.51 61.6172C445.39 61.1484 444.283 60.6406 443.189 60.0938C442.122 59.5469 441.158 58.8828 440.299 58.1016C439.465 57.3203 438.788 56.3828 438.267 55.2891C437.747 54.1953 437.486 52.8802 437.486 51.3438C437.486 50.1198 437.721 48.9219 438.189 47.75C438.658 46.5521 439.374 45.4844 440.338 44.5469C441.327 43.6094 442.577 42.8542 444.088 42.2812C445.624 41.7083 447.434 41.4219 449.517 41.4219C450.403 41.4219 451.275 41.5 452.135 41.6562C453.02 41.7865 453.814 41.9688 454.517 42.2031C455.247 42.4375 455.872 42.6979 456.392 42.9844C456.913 43.2448 457.304 43.4792 457.564 43.6875C457.851 43.8958 458.033 44.0781 458.111 44.2344C458.215 44.3646 458.28 44.5078 458.306 44.6641C458.359 44.8203 458.398 45.0156 458.424 45.25C458.45 45.4583 458.463 45.7188 458.463 46.0312C458.463 46.3438 458.437 46.6302 458.385 46.8906C458.359 47.125 458.306 47.3333 458.228 47.5156C458.15 47.6979 458.046 47.8411 457.916 47.9453C457.812 48.0234 457.681 48.0625 457.525 48.0625C457.317 48.0625 457.004 47.9193 456.588 47.6328C456.171 47.3464 455.624 47.0339 454.947 46.6953C454.27 46.3568 453.463 46.0443 452.525 45.7578C451.588 45.4714 450.507 45.3281 449.283 45.3281C448.059 45.3281 446.978 45.4714 446.041 45.7578C445.129 46.0443 444.374 46.4479 443.775 46.9688C443.176 47.4896 442.721 48.1016 442.408 48.8047C442.122 49.5078 441.978 50.276 441.978 51.1094C441.978 52.2552 442.239 53.2188 442.76 54C443.28 54.7812 443.971 55.4583 444.83 56.0312C445.689 56.6042 446.666 57.112 447.76 57.5547C448.853 57.9974 449.96 58.4401 451.08 58.8828C452.226 59.3255 453.346 59.8203 454.439 60.3672C455.533 60.888 456.51 61.526 457.369 62.2812C458.228 63.0365 458.918 63.9479 459.439 65.0156C459.96 66.0573 460.221 67.3203 460.221 68.8047Z" fill="#0C2045"/>
<path d="M348.936 108.299C349.004 108.47 349.032 108.613 349.021 108.727C349.021 108.829 348.981 108.909 348.901 108.966C348.833 109.023 348.719 109.057 348.56 109.068C348.411 109.091 348.218 109.103 347.979 109.103C347.739 109.103 347.546 109.091 347.397 109.068C347.261 109.057 347.153 109.034 347.073 109C346.993 108.966 346.93 108.92 346.885 108.863C346.851 108.806 346.816 108.738 346.782 108.658L344.663 102.762H334.956L332.922 108.624C332.9 108.704 332.865 108.772 332.82 108.829C332.774 108.886 332.712 108.937 332.632 108.983C332.552 109.017 332.438 109.046 332.29 109.068C332.153 109.091 331.977 109.103 331.76 109.103C331.521 109.103 331.322 109.091 331.162 109.068C331.003 109.046 330.883 109.006 330.803 108.949C330.735 108.892 330.695 108.812 330.684 108.709C330.684 108.607 330.718 108.47 330.786 108.299L338.528 87.2617C338.562 87.1706 338.613 87.0965 338.682 87.0396C338.75 86.9712 338.835 86.9199 338.938 86.8857C339.052 86.8516 339.183 86.8288 339.331 86.8174C339.491 86.7946 339.667 86.7832 339.861 86.7832C340.066 86.7832 340.243 86.7946 340.391 86.8174C340.55 86.8288 340.681 86.8516 340.784 86.8857C340.898 86.9199 340.983 86.9712 341.04 87.0396C341.108 87.0965 341.16 87.1706 341.194 87.2617L348.936 108.299ZM339.758 89.1245H339.741L335.571 101.019H344.031L339.758 89.1245ZM354.609 108.658C354.609 108.727 354.592 108.789 354.558 108.846C354.524 108.903 354.467 108.949 354.387 108.983C354.319 109.017 354.216 109.046 354.08 109.068C353.954 109.091 353.789 109.103 353.584 109.103C353.39 109.103 353.225 109.091 353.088 109.068C352.963 109.046 352.861 109.017 352.781 108.983C352.701 108.949 352.644 108.903 352.61 108.846C352.587 108.789 352.576 108.727 352.576 108.658V93.1919C352.576 93.1235 352.587 93.0609 352.61 93.0039C352.644 92.9469 352.701 92.9014 352.781 92.8672C352.861 92.8216 352.963 92.7931 353.088 92.7817C353.225 92.759 353.39 92.7476 353.584 92.7476C353.789 92.7476 353.954 92.759 354.08 92.7817C354.216 92.7931 354.319 92.8216 354.387 92.8672C354.467 92.9014 354.524 92.9469 354.558 93.0039C354.592 93.0609 354.609 93.1235 354.609 93.1919V108.658ZM354.917 87.9795C354.917 88.5264 354.82 88.8966 354.626 89.0903C354.433 89.284 354.08 89.3809 353.567 89.3809C353.066 89.3809 352.718 89.2897 352.524 89.1074C352.342 88.9137 352.251 88.5435 352.251 87.9966C352.251 87.4497 352.348 87.0794 352.542 86.8857C352.735 86.6921 353.088 86.5952 353.601 86.5952C354.102 86.5952 354.444 86.6921 354.626 86.8857C354.82 87.068 354.917 87.4326 354.917 87.9795ZM368.879 93.978C368.879 94.1489 368.874 94.297 368.862 94.4224C368.851 94.5363 368.828 94.6331 368.794 94.7129C368.771 94.7812 368.737 94.8382 368.691 94.8838C368.657 94.918 368.606 94.9351 368.538 94.9351C368.435 94.9351 368.315 94.9123 368.179 94.8667C368.042 94.8097 367.882 94.7528 367.7 94.6958C367.518 94.6388 367.319 94.5876 367.102 94.542C366.886 94.485 366.646 94.4565 366.384 94.4565C366.077 94.4565 365.775 94.5249 365.479 94.6616C365.182 94.7869 364.869 94.9977 364.539 95.2939C364.22 95.5788 363.878 95.9604 363.513 96.439C363.16 96.9175 362.767 97.5042 362.334 98.1992V108.658C362.334 108.727 362.317 108.789 362.283 108.846C362.249 108.903 362.192 108.949 362.112 108.983C362.043 109.017 361.941 109.046 361.804 109.068C361.679 109.091 361.514 109.103 361.309 109.103C361.115 109.103 360.95 109.091 360.813 109.068C360.688 109.046 360.585 109.017 360.505 108.983C360.426 108.949 360.369 108.903 360.334 108.846C360.312 108.789 360.3 108.727 360.3 108.658V93.1919C360.3 93.1235 360.312 93.0609 360.334 93.0039C360.369 92.9469 360.426 92.9014 360.505 92.8672C360.585 92.8216 360.682 92.7931 360.796 92.7817C360.921 92.759 361.081 92.7476 361.274 92.7476C361.468 92.7476 361.628 92.759 361.753 92.7817C361.878 92.7931 361.975 92.8216 362.043 92.8672C362.112 92.9014 362.157 92.9469 362.18 93.0039C362.214 93.0609 362.231 93.1235 362.231 93.1919V95.6357C362.676 94.9863 363.086 94.4622 363.462 94.0635C363.838 93.6647 364.197 93.3571 364.539 93.1406C364.88 92.9128 365.211 92.759 365.53 92.6792C365.86 92.5994 366.196 92.5596 366.538 92.5596C366.686 92.5596 366.857 92.571 367.051 92.5938C367.244 92.6051 367.45 92.6336 367.666 92.6792C367.894 92.7248 368.093 92.7817 368.264 92.8501C368.446 92.9071 368.572 92.964 368.64 93.021C368.708 93.0666 368.754 93.1121 368.777 93.1577C368.8 93.1919 368.817 93.2432 368.828 93.3115C368.851 93.3685 368.862 93.4539 368.862 93.5679C368.874 93.6704 368.879 93.8071 368.879 93.978ZM391.865 103.019C391.865 103.998 391.689 104.876 391.335 105.65C390.982 106.425 390.487 107.086 389.849 107.633C389.211 108.168 388.453 108.578 387.576 108.863C386.698 109.148 385.741 109.291 384.705 109.291C383.998 109.291 383.332 109.222 382.705 109.085C382.078 108.96 381.52 108.806 381.03 108.624C380.54 108.442 380.125 108.259 379.783 108.077C379.452 107.883 379.224 107.724 379.099 107.599C378.974 107.462 378.883 107.308 378.826 107.137C378.769 106.955 378.74 106.733 378.74 106.471C378.74 106.277 378.752 106.118 378.774 105.992C378.797 105.867 378.826 105.764 378.86 105.685C378.905 105.605 378.957 105.554 379.014 105.531C379.082 105.497 379.15 105.479 379.219 105.479C379.378 105.479 379.6 105.582 379.885 105.787C380.181 105.981 380.557 106.197 381.013 106.437C381.48 106.664 382.033 106.881 382.671 107.086C383.32 107.28 384.072 107.376 384.927 107.376C385.622 107.376 386.26 107.285 386.841 107.103C387.422 106.909 387.923 106.636 388.345 106.283C388.766 105.93 389.091 105.497 389.319 104.984C389.558 104.46 389.678 103.867 389.678 103.207C389.678 102.523 389.53 101.936 389.233 101.446C388.937 100.956 388.544 100.529 388.054 100.165C387.576 99.7886 387.029 99.4525 386.414 99.1562C385.798 98.8486 385.166 98.5467 384.517 98.2505C383.879 97.9429 383.252 97.6125 382.637 97.2593C382.021 96.9061 381.469 96.4959 380.979 96.0288C380.5 95.5503 380.113 94.992 379.817 94.354C379.521 93.716 379.373 92.9583 379.373 92.0811C379.373 91.2266 379.526 90.4632 379.834 89.791C380.142 89.1074 380.575 88.5321 381.133 88.0649C381.691 87.5864 382.358 87.2218 383.132 86.9712C383.918 86.7205 384.779 86.5952 385.713 86.5952C386.18 86.5952 386.653 86.6408 387.131 86.7319C387.61 86.8231 388.06 86.9427 388.481 87.0908C388.914 87.2275 389.296 87.387 389.626 87.5693C389.968 87.7402 390.19 87.8826 390.293 87.9966C390.407 88.0991 390.475 88.1789 390.498 88.2358C390.532 88.2814 390.561 88.3441 390.583 88.4238C390.606 88.5036 390.623 88.6004 390.635 88.7144C390.646 88.8169 390.652 88.9479 390.652 89.1074C390.652 89.2555 390.64 89.3923 390.618 89.5176C390.606 89.6315 390.583 89.734 390.549 89.8252C390.515 89.9049 390.47 89.9676 390.413 90.0132C390.367 90.0588 390.31 90.0815 390.242 90.0815C390.116 90.0815 389.923 90.0018 389.661 89.8423C389.41 89.6714 389.091 89.4834 388.704 89.2783C388.316 89.0732 387.855 88.891 387.319 88.7314C386.784 88.5605 386.174 88.4751 385.491 88.4751C384.819 88.4751 384.232 88.5662 383.73 88.7485C383.229 88.9308 382.813 89.1815 382.483 89.5005C382.153 89.8081 381.902 90.1727 381.731 90.5942C381.571 91.0158 381.492 91.4601 381.492 91.9272C381.492 92.6108 381.64 93.1976 381.936 93.6875C382.232 94.1774 382.625 94.6104 383.115 94.9863C383.605 95.3623 384.158 95.7041 384.773 96.0117C385.4 96.3079 386.032 96.6099 386.67 96.9175C387.319 97.2137 387.952 97.5384 388.567 97.8916C389.194 98.2334 389.752 98.6436 390.242 99.1221C390.732 99.5892 391.125 100.142 391.421 100.78C391.717 101.406 391.865 102.153 391.865 103.019ZM408.699 108.658C408.699 108.727 408.682 108.789 408.647 108.846C408.613 108.903 408.556 108.949 408.477 108.983C408.408 109.017 408.306 109.046 408.169 109.068C408.044 109.091 407.884 109.103 407.69 109.103C407.485 109.103 407.314 109.091 407.178 109.068C407.052 109.046 406.95 109.017 406.87 108.983C406.802 108.949 406.75 108.903 406.716 108.846C406.682 108.789 406.665 108.727 406.665 108.658V99.481C406.665 98.5239 406.591 97.7492 406.443 97.1567C406.295 96.5529 406.073 96.0402 405.776 95.6187C405.48 95.1857 405.098 94.8553 404.631 94.6274C404.176 94.3882 403.64 94.2686 403.025 94.2686C402.239 94.2686 401.453 94.5477 400.667 95.106C399.88 95.6642 399.054 96.4845 398.188 97.5669V108.658C398.188 108.727 398.171 108.789 398.137 108.846C398.103 108.903 398.046 108.949 397.966 108.983C397.898 109.017 397.795 109.046 397.659 109.068C397.533 109.091 397.368 109.103 397.163 109.103C396.969 109.103 396.804 109.091 396.667 109.068C396.542 109.046 396.44 109.017 396.36 108.983C396.28 108.949 396.223 108.903 396.189 108.846C396.166 108.789 396.155 108.727 396.155 108.658V85.6211C396.155 85.5527 396.166 85.4901 396.189 85.4331C396.223 85.3761 396.28 85.3306 396.36 85.2964C396.44 85.2508 396.542 85.2223 396.667 85.2109C396.804 85.1882 396.969 85.1768 397.163 85.1768C397.368 85.1768 397.533 85.1882 397.659 85.2109C397.795 85.2223 397.898 85.2508 397.966 85.2964C398.046 85.3306 398.103 85.3761 398.137 85.4331C398.171 85.4901 398.188 85.5527 398.188 85.6211V95.2769C399.032 94.3426 399.875 93.659 400.718 93.2261C401.561 92.7817 402.404 92.5596 403.247 92.5596C404.261 92.5596 405.116 92.7305 405.811 93.0723C406.506 93.4141 407.064 93.8755 407.485 94.4565C407.918 95.0376 408.226 95.7155 408.408 96.4902C408.602 97.265 408.699 98.1992 408.699 99.293V108.658ZM425.173 108.658C425.173 108.772 425.133 108.863 425.054 108.932C424.985 108.989 424.889 109.028 424.763 109.051C424.649 109.085 424.49 109.103 424.285 109.103C424.091 109.103 423.926 109.085 423.789 109.051C423.652 109.028 423.544 108.989 423.464 108.932C423.396 108.863 423.362 108.772 423.362 108.658V106.932C422.667 107.684 421.898 108.265 421.055 108.675C420.223 109.085 419.357 109.291 418.457 109.291C417.648 109.291 416.919 109.188 416.27 108.983C415.632 108.766 415.09 108.465 414.646 108.077C414.202 107.678 413.86 107.2 413.621 106.642C413.381 106.083 413.262 105.457 413.262 104.762C413.262 103.907 413.438 103.167 413.792 102.54C414.145 101.902 414.646 101.372 415.295 100.951C415.945 100.529 416.725 100.216 417.637 100.011C418.548 99.7943 419.562 99.686 420.679 99.686H423.14V98.353C423.14 97.6922 423.071 97.1112 422.935 96.6099C422.798 96.0972 422.576 95.6699 422.268 95.3281C421.96 94.9863 421.562 94.73 421.072 94.5591C420.582 94.3882 419.984 94.3027 419.277 94.3027C418.594 94.3027 417.979 94.3882 417.432 94.5591C416.885 94.7186 416.406 94.9009 415.996 95.106C415.586 95.311 415.244 95.499 414.971 95.6699C414.709 95.8294 414.521 95.9092 414.407 95.9092C414.338 95.9092 414.276 95.8978 414.219 95.875C414.162 95.8522 414.111 95.8123 414.065 95.7554C414.031 95.687 414.002 95.6073 413.979 95.5161C413.968 95.4136 413.962 95.2939 413.962 95.1572C413.962 94.918 413.979 94.73 414.014 94.5933C414.048 94.4451 414.133 94.3027 414.27 94.166C414.418 94.0179 414.674 93.847 415.039 93.6533C415.404 93.4596 415.819 93.283 416.287 93.1235C416.765 92.9526 417.278 92.8159 417.825 92.7134C418.372 92.6108 418.918 92.5596 419.465 92.5596C420.525 92.5596 421.419 92.6906 422.148 92.9526C422.878 93.2033 423.464 93.5679 423.909 94.0464C424.364 94.5249 424.689 95.1174 424.883 95.8237C425.076 96.5187 425.173 97.3105 425.173 98.1992V108.658ZM423.14 101.361H420.32C419.5 101.361 418.782 101.435 418.167 101.583C417.551 101.731 417.039 101.948 416.628 102.232C416.218 102.517 415.911 102.859 415.706 103.258C415.512 103.657 415.415 104.112 415.415 104.625C415.415 105.514 415.694 106.226 416.252 106.761C416.822 107.285 417.62 107.547 418.645 107.547C419.454 107.547 420.206 107.342 420.901 106.932C421.607 106.511 422.354 105.867 423.14 105.001V101.361ZM439.392 93.978C439.392 94.1489 439.386 94.297 439.375 94.4224C439.364 94.5363 439.341 94.6331 439.307 94.7129C439.284 94.7812 439.25 94.8382 439.204 94.8838C439.17 94.918 439.119 94.9351 439.05 94.9351C438.948 94.9351 438.828 94.9123 438.691 94.8667C438.555 94.8097 438.395 94.7528 438.213 94.6958C438.031 94.6388 437.831 94.5876 437.615 94.542C437.398 94.485 437.159 94.4565 436.897 94.4565C436.589 94.4565 436.287 94.5249 435.991 94.6616C435.695 94.7869 435.382 94.9977 435.051 95.2939C434.732 95.5788 434.39 95.9604 434.026 96.439C433.673 96.9175 433.28 97.5042 432.847 98.1992V108.658C432.847 108.727 432.83 108.789 432.795 108.846C432.761 108.903 432.704 108.949 432.625 108.983C432.556 109.017 432.454 109.046 432.317 109.068C432.192 109.091 432.026 109.103 431.821 109.103C431.628 109.103 431.462 109.091 431.326 109.068C431.2 109.046 431.098 109.017 431.018 108.983C430.938 108.949 430.881 108.903 430.847 108.846C430.824 108.789 430.813 108.727 430.813 108.658V93.1919C430.813 93.1235 430.824 93.0609 430.847 93.0039C430.881 92.9469 430.938 92.9014 431.018 92.8672C431.098 92.8216 431.195 92.7931 431.309 92.7817C431.434 92.759 431.593 92.7476 431.787 92.7476C431.981 92.7476 432.14 92.759 432.266 92.7817C432.391 92.7931 432.488 92.8216 432.556 92.8672C432.625 92.9014 432.67 92.9469 432.693 93.0039C432.727 93.0609 432.744 93.1235 432.744 93.1919V95.6357C433.188 94.9863 433.599 94.4622 433.975 94.0635C434.351 93.6647 434.709 93.3571 435.051 93.1406C435.393 92.9128 435.723 92.759 436.042 92.6792C436.373 92.5994 436.709 92.5596 437.051 92.5596C437.199 92.5596 437.37 92.571 437.563 92.5938C437.757 92.6051 437.962 92.6336 438.179 92.6792C438.407 92.7248 438.606 92.7817 438.777 92.8501C438.959 92.9071 439.084 92.964 439.153 93.021C439.221 93.0666 439.267 93.1121 439.29 93.1577C439.312 93.1919 439.329 93.2432 439.341 93.3115C439.364 93.3685 439.375 93.4539 439.375 93.5679C439.386 93.6704 439.392 93.8071 439.392 93.978ZM454.978 100.13C454.978 100.541 454.87 100.825 454.653 100.985C454.437 101.133 454.226 101.207 454.021 101.207H443.477C443.477 102.164 443.568 103.03 443.75 103.805C443.944 104.579 444.257 105.246 444.69 105.804C445.123 106.351 445.687 106.773 446.382 107.069C447.077 107.365 447.931 107.513 448.945 107.513C449.663 107.513 450.307 107.451 450.876 107.325C451.446 107.2 451.936 107.063 452.346 106.915C452.768 106.756 453.11 106.613 453.372 106.488C453.645 106.362 453.839 106.3 453.953 106.3C454.021 106.3 454.084 106.317 454.141 106.351C454.198 106.385 454.243 106.442 454.277 106.522C454.312 106.59 454.334 106.681 454.346 106.795C454.368 106.909 454.38 107.052 454.38 107.223C454.38 107.302 454.374 107.382 454.363 107.462C454.351 107.53 454.334 107.599 454.312 107.667C454.3 107.724 454.277 107.781 454.243 107.838C454.209 107.895 454.163 107.952 454.106 108.009C454.049 108.066 453.873 108.168 453.577 108.316C453.28 108.453 452.893 108.596 452.415 108.744C451.936 108.88 451.378 109.006 450.74 109.12C450.113 109.234 449.435 109.291 448.706 109.291C447.51 109.291 446.45 109.114 445.527 108.761C444.604 108.396 443.83 107.866 443.203 107.171C442.576 106.465 442.098 105.593 441.768 104.557C441.449 103.52 441.289 102.318 441.289 100.951C441.289 99.6405 441.454 98.467 441.785 97.4302C442.126 96.3934 442.611 95.5161 443.237 94.7983C443.864 94.0692 444.616 93.5166 445.493 93.1406C446.382 92.7533 447.367 92.5596 448.45 92.5596C449.612 92.5596 450.603 92.7533 451.423 93.1406C452.244 93.528 452.916 94.0521 453.44 94.7129C453.975 95.3623 454.363 96.12 454.602 96.9858C454.853 97.8517 454.978 98.7632 454.978 99.7202V100.13ZM452.876 99.5322C452.91 97.8916 452.534 96.6099 451.748 95.687C450.962 94.7642 449.817 94.3027 448.313 94.3027C447.538 94.3027 446.855 94.4508 446.262 94.7471C445.681 95.0319 445.186 95.4136 444.775 95.8921C444.377 96.3706 444.069 96.9289 443.853 97.5669C443.636 98.1935 443.511 98.8486 443.477 99.5322H452.876Z" fill="#0C2045"/>
</svg>
