<svg version="1.1" xmlns="http://www.w3.org/2000/svg" width="108" height="108" viewBox="0 0 256 256"><path d="M0 0 C0.6904541 0.15033691 1.3809082 0.30067383 2.09228516 0.45556641 C28.02504016 6.39733254 51.53535737 21.1045157 70 40 C71.73631636 43.47263273 71.60190402 47.21193013 71 51 C68.81840855 53.75569447 67.12822506 55.43588747 64 57 C59.71174832 57.48730133 57.16062139 56.94695569 53.6640625 54.3828125 C51.7327564 52.77792434 49.90582313 51.08024649 48.0625 49.375 C24.31565203 28.01077892 -6.7106695 17.43016963 -38.42626953 18.83154297 C-67.19157425 20.71430338 -91.26171594 33.73022572 -113 52 C-117.61381028 55.77676197 -119.89168499 57.58733798 -126 57 C-131.57894737 53.84210526 -131.57894737 53.84210526 -133 51 C-133.71757211 47.06966187 -133.86298617 43.52795839 -131.859375 39.98046875 C-130.03388943 37.80495076 -128.09967883 35.91367661 -126 34 C-125.15050781 33.21753906 -124.30101562 32.43507812 -123.42578125 31.62890625 C-89.61908018 2.06533819 -43.84099088 -9.70211233 0 0 Z " fill="#0B1F45" transform="translate(159,53)" /><path d="M0 0 C0.75023437 -0.02835937 1.50046875 -0.05671875 2.2734375 -0.0859375 C6.24852867 0.69323319 8.54452005 2.90921683 10.91894531 6.13037109 C12.35138704 8.30854683 13.71353897 10.51916655 15.0625 12.75 C16.11516249 14.45487366 17.16857991 16.15928137 18.22265625 17.86328125 C18.77324707 18.75869629 19.32383789 19.65411133 19.89111328 20.57666016 C23.43954091 26.30350857 27.09508653 31.96293953 30.72827148 37.63623047 C32.37028048 40.20977534 33.99820596 42.79181841 35.625 45.375 C36.20008301 46.26703125 36.77516602 47.1590625 37.36767578 48.078125 C38.19114502 49.38716797 38.19114502 49.38716797 39.03125 50.72265625 C39.52689453 51.5000415 40.02253906 52.27742676 40.53320312 53.07836914 C42.08650477 56.34579055 42.00483747 58.96216067 41.3125 62.4609375 C40.31984988 65.22456569 39.00874071 66.6923595 36.625 68.375 C33.28770824 69.48743059 30.74624747 69.5222959 27.22924805 69.55200195 C26.5849585 69.55857315 25.94066895 69.56514435 25.27685547 69.57191467 C23.14680864 69.59160845 21.01683219 69.60330146 18.88671875 69.61328125 C17.79330642 69.61939454 17.79330642 69.61939454 16.67780495 69.62563133 C12.81946727 69.64647543 8.96116497 69.66078425 5.1027832 69.67016602 C1.12476872 69.68122677 -2.85268584 69.71562682 -6.83050251 69.75533772 C-9.89579789 69.7815252 -12.96096025 69.7898597 -16.02635765 69.79344749 C-17.49233977 69.79830804 -18.95831616 69.80990699 -20.42418861 69.82848549 C-22.48026116 69.85292439 -24.53489011 69.85190453 -26.59106445 69.8449707 C-27.75893997 69.85083694 -28.92681549 69.85670319 -30.13008118 69.86274719 C-34.08591267 69.26814196 -36.26589056 67.84440429 -39.375 65.375 C-41.12756854 61.86986292 -40.86725476 58.20398946 -40.375 54.375 C-39.22611373 51.40415687 -37.58518874 48.88667542 -35.8125 46.25 C-35.32942383 45.4964624 -34.84634766 44.7429248 -34.34863281 43.96655273 C-32.71046695 41.42266523 -31.04298096 38.89942414 -29.375 36.375 C-28.0986248 34.41121837 -26.82394177 32.44633605 -25.55078125 30.48046875 C-22.4421841 25.68848102 -19.31248187 20.91088602 -16.16992188 16.14111328 C-13.69690436 12.33000223 -11.31564198 8.46274999 -8.94433594 4.58764648 C-6.42563946 1.03647253 -4.20203918 0.07170715 0 0 Z M-4.375 12.375 C-6.44092979 16.50685958 -5.48776636 21.84896838 -5.375 26.375 C-5.34664062 27.54417969 -5.31828125 28.71335937 -5.2890625 29.91796875 C-5.23492187 31.05878906 -5.18078125 32.19960937 -5.125 33.375 C-5.07859375 34.426875 -5.0321875 35.47875 -4.984375 36.5625 C-4.2360864 40.01613969 -3.24525579 41.3393576 -0.375 43.375 C1.84358253 43.23858623 1.84358253 43.23858623 3.625 42.375 C5.12345897 36.32297154 5.94908322 30.26759705 6.4375 24.0625 C6.50251709 23.38123047 6.56753418 22.69996094 6.63452148 21.99804688 C6.93831047 17.52855833 6.4032838 14.91099757 3.625 11.375 C0.39495276 9.81207392 -1.44329113 10.45422522 -4.375 12.375 Z M-3.5625 51.0625 C-5.55985834 53.23329303 -5.55985834 53.23329303 -5.8125 55.9375 C-5.51503166 58.36944204 -5.51503166 58.36944204 -4.3125 60.25 C-1.25930685 62.02282183 1.28911708 61.06735306 4.625 60.375 C5.285 58.395 5.945 56.415 6.625 54.375 C4.31267578 51.81250025 4.31267578 51.81250025 1.625 49.375 C-1.43956796 49.06959827 -1.43956796 49.06959827 -3.5625 51.0625 Z " fill="#0B1F44" transform="translate(187.375,94.625)" /><path d="M0 0 C-1.52853935 4.27186525 -3.71509481 7.99326863 -6.125 11.8125 C-6.49753906 12.40998047 -6.87007813 13.00746094 -7.25390625 13.62304688 C-8.1657048 15.08426251 -9.08235976 16.54244585 -10 18 C-15.16345531 17.11426108 -20.06326873 15.43929126 -25.02929688 13.81640625 C-44.36567902 7.62143263 -64.37832937 10.55905436 -82.1875 19.71582031 C-89.84254354 23.84331651 -96.96369704 28.75253228 -103.73828125 34.203125 C-107.18451868 36.94106838 -109.52319517 37.33331186 -113.9609375 37.29296875 C-117.13134567 36.83745033 -118.8192402 35.24684343 -121 33 C-122.65764071 29.68471859 -122.7302995 26.55706222 -122 23 C-113.15774985 7.5866256 -89.89115919 -2.86110401 -73.48388672 -7.57983398 C-71.66102686 -8.072505 -69.83069086 -8.53727571 -68 -9 C-67.12085938 -9.24363281 -66.24171875 -9.48726563 -65.3359375 -9.73828125 C-43.56975844 -14.81705636 -19.54428758 -10.11012771 0 0 Z " fill="#0B1F44" transform="translate(174,99)" /><path d="M0 0 C-0.64570765 3.75041158 -2.35562441 6.34905316 -4.4375 9.5 C-6.48052953 12.60506366 -8.41959633 15.63270775 -10 19 C-10.60585937 18.855625 -11.21171875 18.71125 -11.8359375 18.5625 C-23.88135933 15.89397578 -34.90921564 16.20340019 -45.83984375 22.68359375 C-48.28367386 24.39243736 -50.65106996 26.16356379 -53 28 C-59.65226586 32.8939577 -59.65226586 32.8939577 -64 33 C-67.88399124 31.79462341 -70.3072328 30.82685117 -72.9375 27.6875 C-74.22223005 24.43788871 -74.49566337 22.4696436 -74 19 C-67.26789202 7.39023046 -54.18279985 0.94206209 -41.78125 -3.03125 C-27.61095807 -6.74579254 -13.49786285 -5.69634579 0 0 Z " fill="#0B1F44" transform="translate(153,131)" /><path d="M0 0 C4.07733699 3.00343453 7.21919777 6.52868707 8.82421875 11.34375 C9.45958636 19.05148827 9.73239694 25.14394597 4.82421875 31.34375 C0.09493526 36.17668901 -4.26709795 38.40064819 -10.98828125 38.71875 C-17.08988162 38.56462339 -21.54557811 36.86507763 -25.96875 32.625 C-31.11595299 26.8542641 -31.52968507 22.23413171 -31.453125 14.578125 C-30.95585372 8.7789614 -28.54194204 5.39008797 -24.23828125 1.53125 C-16.74445276 -3.82148464 -8.16557903 -4.63765138 0 0 Z " fill="#0B1F45" transform="translate(139.17578125,167.65625)" /></svg>